<svg width="30" height="30" viewBox="0 0 30 30" fill="none" xmlns="http://www.w3.org/2000/svg">
<path d="M20.5389 9.43359L18.8332 13.0945C17.7141 15.498 15.2771 17.0508 12.6258 17.0508H9.52148V20.5664H7.76367V9.43359H9.52148V15.293H12.6258C14.5963 15.293 16.408 14.1387 17.24 12.3521L18.6463 9.3334C18.9229 9.39902 19.2117 9.43359 19.5082 9.43359H20.5389Z" fill="url(#paint0_linear_144_877)"/>
<path d="M23.2066 0H19.5082C18.4119 0 17.5195 0.892383 17.5195 1.98867V5.68711C17.5195 6.7834 18.4119 7.67578 19.5082 7.67578H23.2066C24.3029 7.67578 25.1953 6.7834 25.1953 5.68711V1.98867C25.1953 0.892383 24.3029 0 23.2066 0Z" fill="url(#paint1_linear_144_877)"/>
<path d="M10.4918 0H6.79336C5.69707 0 4.80469 0.892383 4.80469 1.98867V5.68711C4.80469 6.7834 5.69707 7.67578 6.79336 7.67578H10.4918C11.5881 7.67578 12.4805 6.7834 12.4805 5.68711V1.98867C12.4805 0.892383 11.5881 0 10.4918 0Z" fill="url(#paint2_linear_144_877)"/>
<path d="M10.4918 22.3242H6.79336C5.69707 22.3242 4.80469 23.2166 4.80469 24.3129V28.0113C4.80469 29.1076 5.69707 30 6.79336 30H10.4918C11.5881 30 12.4805 29.1076 12.4805 28.0113V24.3129C12.4805 23.2166 11.5881 22.3242 10.4918 22.3242Z" fill="url(#paint3_linear_144_877)"/>
<defs>
<linearGradient id="paint0_linear_144_877" x1="4.80469" y1="-6.60003" x2="26.6521" y2="-6.44102" gradientUnits="userSpaceOnUse">
<stop stop-color="#0FEF9E"/>
<stop offset="1" stop-color="#064560"/>
</linearGradient>
<linearGradient id="paint1_linear_144_877" x1="4.80469" y1="-6.60003" x2="26.6521" y2="-6.44102" gradientUnits="userSpaceOnUse">
<stop stop-color="#0FEF9E"/>
<stop offset="1" stop-color="#064560"/>
</linearGradient>
<linearGradient id="paint2_linear_144_877" x1="4.80469" y1="-6.60003" x2="26.6521" y2="-6.44102" gradientUnits="userSpaceOnUse">
<stop stop-color="#0FEF9E"/>
<stop offset="1" stop-color="#064560"/>
</linearGradient>
<linearGradient id="paint3_linear_144_877" x1="4.80469" y1="-6.60003" x2="26.6521" y2="-6.44102" gradientUnits="userSpaceOnUse">
<stop stop-color="#0FEF9E"/>
<stop offset="1" stop-color="#064560"/>
</linearGradient>
</defs>
</svg>
