<svg width="30" height="30" viewBox="0 0 30 30" fill="none" xmlns="http://www.w3.org/2000/svg">
<path d="M29.9043 0.870054C29.8899 0.67024 29.8082 0.483014 29.675 0.338132C29.4285 0.0220464 28.9886 -0.0937678 28.6105 0.0827001L28.5931 0.0909398C28.58 0.0968908 28.5674 0.103299 28.5548 0.109937L6.69571 10.8244C6.4183 10.9603 6.23245 11.2322 6.20681 11.5403C6.18118 11.8484 6.31897 12.1473 6.57028 12.3277L12.6439 16.6858L0.443568 28.4895C0.127483 28.7952 0.0860549 29.2878 0.346751 29.6419C0.517497 29.8742 0.783458 30.0001 1.05514 30.0001C1.19819 30.0001 1.34285 29.9651 1.47583 29.8925L24.5231 17.3093C24.7884 17.1646 24.9607 16.8936 24.979 16.5919C24.9976 16.2901 24.8598 16.0001 24.6142 15.8238L18.9862 11.7857L29.6361 1.56677C29.8244 1.38595 29.9229 1.13052 29.9043 0.870054Z" fill="url(#paint0_linear_5_203)"/>
<path d="M29.9043 0.870054C29.8899 0.67024 29.8082 0.483014 29.675 0.338132C29.4285 0.0220464 28.9886 -0.0937678 28.6105 0.0827001L28.5931 0.0909398C28.58 0.0968908 28.5674 0.103299 28.5548 0.109937L15.0412 6.73378V22.4861L24.5231 17.3093C24.7884 17.1646 24.9607 16.8936 24.979 16.5919C24.9976 16.2901 24.8598 16.0001 24.6142 15.8238L18.9862 11.7857L29.6361 1.56677C29.8244 1.38595 29.9229 1.13052 29.9043 0.870054Z" fill="url(#paint1_linear_5_203)"/>
<defs>
<linearGradient id="paint0_linear_5_203" x1="0.175766" y1="-6.59997" x2="32.0287" y2="-6.26196" gradientUnits="userSpaceOnUse">
<stop stop-color="#0FEF9E"/>
<stop offset="1" stop-color="#064560"/>
</linearGradient>
<linearGradient id="paint1_linear_5_203" x1="0.175766" y1="-6.59997" x2="32.0287" y2="-6.26196" gradientUnits="userSpaceOnUse">
<stop stop-color="#0FEF9E"/>
<stop offset="1" stop-color="#064560"/>
</linearGradient>
</defs>
</svg>
