<svg width="30" height="30" viewBox="0 0 30 30" fill="none" xmlns="http://www.w3.org/2000/svg">
<path d="M28.0286 4.19869C27.9748 3.81189 27.6965 3.49372 27.3203 3.38915L15.2627 0.0359434C15.0908 -0.0118997 14.9093 -0.0118997 14.7373 0.0359434L2.67974 3.38915C2.30353 3.49372 2.02523 3.81176 1.97137 4.19869C1.90144 4.70156 0.306011 16.5834 4.39817 22.4942C8.48549 28.398 14.5152 29.911 14.7698 29.9725C14.8455 29.9908 14.9226 29.9999 15 29.9999C15.0774 29.9999 15.1545 29.9907 15.2302 29.9725C15.485 29.911 21.5146 28.398 25.6018 22.4942C29.694 16.5835 28.0986 4.70169 28.0286 4.19869ZM22.7756 11.1354L14.5511 19.3599C14.3597 19.5512 14.1088 19.6471 13.8579 19.6471C13.6071 19.6471 13.3561 19.5514 13.1647 19.3599L8.07961 14.2748C7.89568 14.091 7.79242 13.8416 7.79242 13.5816C7.79242 13.3216 7.89581 13.0722 8.07961 12.8884L9.08928 11.8787C9.47215 11.4959 10.0929 11.4958 10.4757 11.8787L13.8579 15.2609L20.3795 8.73921C20.5633 8.55529 20.8127 8.45202 21.0727 8.45202C21.3327 8.45202 21.5821 8.55529 21.7659 8.73921L22.7756 9.74889C23.1584 10.1318 23.1584 10.7525 22.7756 11.1354Z" fill="url(#paint0_linear_5_204)"/>
<defs>
<linearGradient id="paint0_linear_5_204" x1="7.29817" y1="21.9545" x2="27.8718" y2="22.2369" gradientUnits="userSpaceOnUse">
<stop stop-color="#40A9FF"/>
<stop offset="1" stop-color="#7E46EF"/>
</linearGradient>
</defs>
</svg>
