<svg width="30" height="30" viewBox="0 0 30 30" fill="none" xmlns="http://www.w3.org/2000/svg">
<g clip-path="url(#clip0_5_202)">
<path d="M29.9043 0.870054C29.8899 0.67024 29.8082 0.483014 29.675 0.338132C29.4285 0.0220464 28.9886 -0.0937678 28.6105 0.0827001L28.5931 0.0909398C28.58 0.0968908 28.5674 0.103299 28.5548 0.109937L6.69571 10.8244C6.4183 10.9603 6.23245 11.2322 6.20682 11.5403C6.18118 11.8484 6.31897 12.1473 6.57028 12.3277L12.6439 16.6858L0.443572 28.4895C0.127486 28.7952 0.0860587 29.2878 0.346755 29.6419C0.517501 29.8742 0.783462 30.0001 1.05514 30.0001C1.1982 30.0001 1.34285 29.9651 1.47583 29.8925L24.5231 17.3093C24.7884 17.1646 24.9607 16.8936 24.979 16.5919C24.9976 16.2901 24.8598 16.0001 24.6142 15.8238L18.9862 11.7857L29.6361 1.56677C29.8245 1.38595 29.9229 1.13052 29.9043 0.870054Z" fill="url(#paint0_linear_5_202)"/>
<path d="M29.9043 0.870054C29.8899 0.67024 29.8082 0.483014 29.675 0.338132C29.4285 0.0220464 28.9886 -0.0937678 28.6105 0.0827001L28.5931 0.0909398C28.58 0.0968908 28.5674 0.103299 28.5548 0.109937L15.0412 6.73378V22.4861L24.5231 17.3093C24.7884 17.1646 24.9607 16.8936 24.979 16.5919C24.9976 16.2901 24.8598 16.0001 24.6142 15.8238L18.9862 11.7857L29.6361 1.56677C29.8245 1.38595 29.9229 1.13052 29.9043 0.870054Z" fill="url(#paint1_linear_5_202)"/>
</g>
<defs>
<linearGradient id="paint0_linear_5_202" x1="6.49237" y1="21.9546" x2="29.3275" y2="22.3026" gradientUnits="userSpaceOnUse">
<stop stop-color="#40A9FF"/>
<stop offset="1" stop-color="#7E46EF"/>
</linearGradient>
<linearGradient id="paint1_linear_5_202" x1="6.49237" y1="21.9546" x2="29.3275" y2="22.3026" gradientUnits="userSpaceOnUse">
<stop stop-color="#40A9FF"/>
<stop offset="1" stop-color="#7E46EF"/>
</linearGradient>
<clipPath id="clip0_5_202">
<rect width="30" height="30" fill="white"/>
</clipPath>
</defs>
</svg>
