<svg width="34" height="35" fill="none" xmlns="http://www.w3.org/2000/svg"><path d="M11.416 23.685L7.438 34.343c-1.044-2.909-2.43-6.673-3.481-9.579-.223-.615-.275-.615-.041-1.26 1.756-4.842 3.696-10.073 5.44-14.918-.086.16.042-.115 0 0h7.484l-4.168 11.257c.506-.072.882-.102 1.244-.181 3.905-.858 7.216-2.64 9.726-5.633 1.134-1.353 1.614-2.879 1.3-4.621-.258-1.431-.965-2.147-2.498-2.313a16.24 16.24 0 00-1.772-.1C14.68 6.99 7.52 6.992 1.527 6.992L0 2.554h11.754l.933-2.21h2.887c-.277.756-.54 1.47-.831 2.27h1.414c.309-.745.62-1.49.942-2.27h2.986c-.279.756-.542 1.539-.833 2.33 2.008.005 4.852-.005 6.86.006 1.5.009 2.942.288 4.299.9 2.299 1.037 3.431 2.794 3.574 5.17.145 2.407-.788 4.431-2.434 6.206-2.08 2.24-4.706 3.763-7.514 5.033-3.913 1.769-8.347 3.03-12.62 3.694v.002z" fill="#D2D3E0"/></svg>