<svg width="60" height="62" fill="none" xmlns="http://www.w3.org/2000/svg"><path fill-rule="evenodd" clip-rule="evenodd" d="M20.726 40.497a2.14 2.14 0 012.141-2.14h14.27a2.14 2.14 0 110 4.28h-14.27a2.14 2.14 0 01-2.14-2.14z" fill="url(#a)"/><path fill-rule="evenodd" clip-rule="evenodd" d="M30.003 31.39a2.14 2.14 0 012.14 2.142v14.27a2.14 2.14 0 11-4.281 0v-14.27a2.14 2.14 0 012.14-2.141z" fill="url(#b)"/><path fill-rule="evenodd" clip-rule="evenodd" d="M23.425 4.79c-1.83.825-3.546 2.84-5.363 7.043a2.15 2.15 0 01-.09.183l-.009.027-.034.103c-.02.061-.044.122-.07.18l-.186.426-.114.286-3.33 7.954c.604-.069 1.218-.104 1.84-.104h6.726l6.89-15.99c-2.873-.84-4.8-.767-6.26-.108zM21.665.887c3.38-1.524 7.248-.956 11.666.734a2.141 2.141 0 011.203 2.842l-.086.2-8.279 19.212a2.14 2.14 0 01-1.966 1.294H16.07c-1.645 0-3.217.338-4.645.944a2.14 2.14 0 01-2.81-2.798L13.603 11.4l.107-.27.027-.062.16-.366c.048-.145.139-.4.277-.662 1.913-4.398 4.17-7.655 7.49-9.153z" fill="url(#c)"/><path fill-rule="evenodd" clip-rule="evenodd" d="M30.599 2.777a2.14 2.14 0 012.644-1.188c.353.118.84.328 1.141.458l.233.1.036.013 6.302 2.653c3.602 1.494 6.453 3.17 8.277 5.41.323.388.628.798.905 1.298.29.46.564.99.748 1.598.123.297.221.593.294.87.973 3.105.29 6.608-1.243 10.41a2.14 2.14 0 01-2.621 1.244c-1.042-.324-2.192-.474-3.389-.474H24.203a2.14 2.14 0 01-1.965-2.988l8.277-19.208.084-.196zm3.1 3.627l-6.242 14.484h16.469c.88 0 1.775.062 2.666.204.854-2.61.937-4.468.49-5.857a2.124 2.124 0 01-.038-.136 2.47 2.47 0 00-.136-.392 2.141 2.141 0 01-.113-.318c-.038-.146-.121-.339-.303-.62a2.195 2.195 0 01-.084-.143 3.928 3.928 0 00-.473-.672l-.017-.02c-1.143-1.408-3.196-2.754-6.608-4.169l-.01-.004-5.602-2.357z" fill="url(#d)"/><path fill-rule="evenodd" clip-rule="evenodd" d="M11.458 26.113c-4.206 1.819-7.143 6-7.143 10.845v5.565c0 .57.047 1.159.124 1.75.006.045.01.09.014.136.277 4.191 1.513 7.12 3.463 9.07 1.95 1.95 4.878 3.186 9.07 3.462.045.003.09.008.136.014.59.077 1.18.125 1.75.125h22.262c4.966 0 8.408-1.182 10.659-3.208 2.232-2.008 3.62-5.14 3.872-9.749a32.21 32.21 0 00.054-1.6v-5.566c0-5.33-3.545-9.829-8.352-11.307a12.148 12.148 0 00-3.408-.48H16.102c-1.634 0-3.178.334-4.644.943zm-1.659-3.947a16.274 16.274 0 016.303-1.278H43.96c1.6 0 3.174.228 4.631.659l.021.006C55.16 23.56 60 29.676 60 36.958v5.565c0 .625-.03 1.24-.059 1.797v.023l-.001.009c-.292 5.351-1.957 9.71-5.283 12.703-3.307 2.976-7.93 4.306-13.523 4.306H18.87c-.776 0-1.532-.063-2.235-.152-4.854-.332-8.866-1.821-11.748-4.703C2.006 53.624.518 49.612.185 44.758c-.09-.702-.152-1.46-.152-2.235v-5.566c0-6.624 4.022-12.315 9.742-14.78l.024-.01z" fill="url(#e)"/><path fill-rule="evenodd" clip-rule="evenodd" d="M17.242 10.858c.5.612.622 1.45.317 2.18l-4.995 11.93a2.14 2.14 0 01-1.128 1.14c-4.212 1.815-7.155 6-7.155 10.849a2.14 2.14 0 11-4.281 0v-8.363c0-9.145 6.505-16.776 15.17-18.483a2.14 2.14 0 012.072.747zM4.56 25.748a16.184 16.184 0 014.375-3.197l2.791-6.667A14.568 14.568 0 004.56 25.75z" fill="url(#f)"/><path fill-rule="evenodd" clip-rule="evenodd" d="M47.413 12.313a2.14 2.14 0 012.486-.379c6.005 3.1 10.092 9.447 10.092 16.659v8.363a2.14 2.14 0 01-4.281 0c0-5.316-3.53-9.833-8.35-11.28a2.14 2.14 0 01-1.373-2.845c1.417-3.542 1.646-5.905 1.133-7.648a2.232 2.232 0 01-.036-.14 1.15 1.15 0 00-.082-.25 2.14 2.14 0 01.41-2.48zm8.014 13.42a14.525 14.525 0 00-3.85-7.296c-.132 1.262-.434 2.575-.874 3.942a16.026 16.026 0 014.724 3.353z" fill="url(#g)"/><defs><linearGradient id="a" x1="0" y1="-13.499" x2="64.283" y2="-12.826" gradientUnits="userSpaceOnUse"><stop stop-color="#0FEF9E"/><stop offset="1" stop-color="#064560"/></linearGradient><linearGradient id="b" x1="0" y1="-13.499" x2="64.283" y2="-12.826" gradientUnits="userSpaceOnUse"><stop stop-color="#0FEF9E"/><stop offset="1" stop-color="#064560"/></linearGradient><linearGradient id="c" x1="0" y1="-13.499" x2="64.283" y2="-12.826" gradientUnits="userSpaceOnUse"><stop stop-color="#0FEF9E"/><stop offset="1" stop-color="#064560"/></linearGradient><linearGradient id="d" x1="0" y1="-13.499" x2="64.283" y2="-12.826" gradientUnits="userSpaceOnUse"><stop stop-color="#0FEF9E"/><stop offset="1" stop-color="#064560"/></linearGradient><linearGradient id="e" x1="0" y1="-13.499" x2="64.283" y2="-12.826" gradientUnits="userSpaceOnUse"><stop stop-color="#0FEF9E"/><stop offset="1" stop-color="#064560"/></linearGradient><linearGradient id="f" x1="0" y1="-13.499" x2="64.283" y2="-12.826" gradientUnits="userSpaceOnUse"><stop stop-color="#0FEF9E"/><stop offset="1" stop-color="#064560"/></linearGradient><linearGradient id="g" x1="0" y1="-13.499" x2="64.283" y2="-12.826" gradientUnits="userSpaceOnUse"><stop stop-color="#0FEF9E"/><stop offset="1" stop-color="#064560"/></linearGradient></defs></svg>