<svg width="30" height="30" fill="none" xmlns="http://www.w3.org/2000/svg"><path d="M20.539 9.434l-1.706 3.66a6.871 6.871 0 01-6.207 3.957H9.52v3.515H7.764V9.434H9.52v5.859h3.105a5.108 5.108 0 004.614-2.94l1.406-3.02c.277.066.566.1.862.1h1.03z" fill="url(#a)"/><path d="M23.207 0h-3.699a1.991 1.991 0 00-1.988 1.989v3.698c0 1.096.892 1.989 1.988 1.989h3.699a1.991 1.991 0 001.988-1.989V1.99A1.991 1.991 0 0023.207 0z" fill="url(#b)"/><path d="M10.492 0H6.793a1.991 1.991 0 00-1.988 1.989v3.698c0 1.096.892 1.989 1.988 1.989h3.699a1.991 1.991 0 001.988-1.989V1.99A1.991 1.991 0 0010.492 0z" fill="url(#c)"/><path d="M10.492 22.324H6.793a1.991 1.991 0 00-1.988 1.989v3.698c0 1.097.892 1.989 1.988 1.989h3.699a1.991 1.991 0 001.988-1.989v-3.698a1.991 1.991 0 00-1.988-1.989z" fill="url(#d)"/><defs><linearGradient id="a" x1="4.805" y1="-6.6" x2="26.652" y2="-6.441" gradientUnits="userSpaceOnUse"><stop stop-color="#0FEF9E"/><stop offset="1" stop-color="#064560"/></linearGradient><linearGradient id="b" x1="4.805" y1="-6.6" x2="26.652" y2="-6.441" gradientUnits="userSpaceOnUse"><stop stop-color="#0FEF9E"/><stop offset="1" stop-color="#064560"/></linearGradient><linearGradient id="c" x1="4.805" y1="-6.6" x2="26.652" y2="-6.441" gradientUnits="userSpaceOnUse"><stop stop-color="#0FEF9E"/><stop offset="1" stop-color="#064560"/></linearGradient><linearGradient id="d" x1="4.805" y1="-6.6" x2="26.652" y2="-6.441" gradientUnits="userSpaceOnUse"><stop stop-color="#0FEF9E"/><stop offset="1" stop-color="#064560"/></linearGradient></defs></svg>