<svg width="30" height="30" fill="none" xmlns="http://www.w3.org/2000/svg"><path d="M28.029 4.199a.98.98 0 00-.709-.81L15.263.036a.98.98 0 00-.526 0L2.68 3.389a.98.98 0 00-.709.81c-.07.503-1.665 12.384 2.427 18.295 4.087 5.904 10.117 7.417 10.372 7.479a.978.978 0 00.46 0c.255-.062 6.285-1.575 10.372-7.479 4.092-5.91 2.497-17.792 2.427-18.295zm-5.253 6.936L14.55 19.36a.978.978 0 01-1.386 0L8.08 14.275a.98.98 0 010-1.387l1.01-1.01a.98.98 0 011.386 0l3.382 3.383 6.521-6.522a.98.98 0 011.387 0l1.01 1.01a.98.98 0 010 1.386z" fill="url(#a)"/><defs><linearGradient id="a" x1="1.607" y1="-6.6" x2="30.305" y2="-6.326" gradientUnits="userSpaceOnUse"><stop stop-color="#0FEF9E"/><stop offset="1" stop-color="#064560"/></linearGradient></defs></svg>