<svg width="16" height="17" fill="none" xmlns="http://www.w3.org/2000/svg"><g clip-path="url(#a)" fill="#D2D3E0"><path d="M15.832 3.762L12.707.637A.469.469 0 0012.375.5H5.187c-.775 0-1.406.63-1.406 1.406V8.09a4.225 4.225 0 00-3.75 4.192A4.224 4.224 0 004.25 16.5h10.313c.775 0 1.406-.63 1.406-1.406v-11a.469.469 0 00-.137-.332zM12.844 2.1l1.524 1.525h-1.524V2.1zM.969 12.281A3.285 3.285 0 014.25 9a3.285 3.285 0 013.281 3.281 3.285 3.285 0 01-3.281 3.281 3.285 3.285 0 01-3.281-3.28zm13.594 3.281H6.897a4.217 4.217 0 001.545-2.812h4.87a.469.469 0 000-.938h-4.87a4.193 4.193 0 00-.687-1.874h5.556a.469.469 0 000-.938H6.899a4.2 4.2 0 00-2.18-.911V1.906a.47.47 0 01.47-.468h6.718v2.656c0 .259.21.468.469.468h2.656v10.532a.47.47 0 01-.469.469z"/><path d="M13.313 6.188H6.436a.469.469 0 000 .937h6.875a.469.469 0 100-.938zM5.5 12.75a.469.469 0 000-.938h-.781v-1.406a.469.469 0 00-.938 0v1.875c0 .26.21.469.469.469H5.5z"/></g><defs><clipPath id="a"><path fill="#fff" transform="translate(0 .5)" d="M0 0H16V16H0z"/></clipPath></defs></svg>