<svg width="10" height="11" fill="none" xmlns="http://www.w3.org/2000/svg"><g clip-path="url(#a)" fill="#858699"><path d="M10 7.268a3.24 3.24 0 00-2.367-3.115A3.823 3.823 0 003.818.5 3.823 3.823 0 00.53 6.26L.014 8.122l1.864-.516c.539.32 1.147.499 1.775.526A3.24 3.24 0 006.768 10.5c.581 0 1.147-.155 1.644-.45l1.574.436-.435-1.574A3.22 3.22 0 0010 7.268zm-8.03-.294l-1.116.308.309-1.115-.07-.11a3.236 3.236 0 012.726-4.97A3.236 3.236 0 017.05 4.317 3.236 3.236 0 012.08 7.044l-.11-.07zm7.176 2.672l-.828-.23-.11.072a2.636 2.636 0 01-1.44.426 2.653 2.653 0 01-2.51-1.803 3.826 3.826 0 003.353-3.353 2.653 2.653 0 011.803 2.51c0 .513-.147 1.01-.426 1.44l-.071.11.229.828z"/><path d="M3.525 5.793h.586v.586h-.586v-.586zM4.404 3.43a.58.58 0 01-.19.432l-.689.63v.715h.586V4.75l.498-.456a1.173 1.173 0 00-.79-2.037c-.647 0-1.173.526-1.173 1.173h.586a.587.587 0 011.172 0z"/></g><defs><clipPath id="a"><path fill="#fff" transform="translate(0 .5)" d="M0 0H10V10H0z"/></clipPath></defs></svg>