<svg width="12" height="14" fill="none" xmlns="http://www.w3.org/2000/svg"><path d="M3.188 1.75A2.437 2.437 0 00.75 4.188v3.375A2.437 2.437 0 003.188 10h3.374A2.437 2.437 0 009 7.562V4.188A2.437 2.437 0 006.562 1.75H3.188zM1.875 4.188c0-.725.588-1.313 1.313-1.313h3.374c.725 0 1.313.588 1.313 1.313v3.375a1.313 1.313 0 01-1.313 1.312H3.188a1.313 1.313 0 01-1.312-1.313V4.188z" fill="url(#a)"/><path d="M3.782 11.602c-.365-.338-.047-.852.451-.852.183 0 .354.079.509.176.202.126.44.199.695.199h3.375c.358 0 .683-.143.919-.375h.019v-.019c.232-.237.375-.56.375-.918V6.438a1.31 1.31 0 00-.2-.696c-.097-.154-.175-.325-.175-.508 0-.498.513-.818.852-.452a2.43 2.43 0 01.648 1.656v3.375a2.437 2.437 0 01-2.438 2.437H5.437a2.428 2.428 0 01-1.655-.648z" fill="url(#b)"/><defs><linearGradient id="a" x1=".75" y1="-.065" x2="9.589" y2=".03" gradientUnits="userSpaceOnUse"><stop stop-color="#0FEF9E"/><stop offset="1" stop-color="#064560"/></linearGradient><linearGradient id="b" x1="3.624" y1="2.947" x2="11.794" y2="3.034" gradientUnits="userSpaceOnUse"><stop stop-color="#0FEF9E"/><stop offset="1" stop-color="#064560"/></linearGradient></defs></svg>