<svg width="16" height="17" fill="none" xmlns="http://www.w3.org/2000/svg"><g clip-path="url(#a)"><path d="M5.625 10.25h-3.75A1.877 1.877 0 000 12.125v2.5C0 15.659.841 16.5 1.875 16.5h3.75A1.877 1.877 0 007.5 14.625v-2.5a1.877 1.877 0 00-1.875-1.875zm.625 4.375c0 .345-.28.625-.625.625h-3.75a.626.626 0 01-.625-.625v-2.5c0-.345.28-.625.625-.625h3.75c.345 0 .625.28.625.625v2.5zM14.125.5h-3.75A1.877 1.877 0 008.5 2.375v2.5c0 1.034.841 1.875 1.875 1.875h3.75A1.877 1.877 0 0016 4.875v-2.5A1.877 1.877 0 0014.125.5zm.625 4.375c0 .345-.28.625-.625.625h-3.75a.626.626 0 01-.625-.625v-2.5c0-.345.28-.625.625-.625h3.75c.345 0 .625.28.625.625v2.5zm-.625 2.875h-3.75A1.877 1.877 0 008.5 9.625v5c0 1.034.841 1.875 1.875 1.875h3.75A1.877 1.877 0 0016 14.625v-5a1.877 1.877 0 00-1.875-1.875zm.625 6.875c0 .345-.28.625-.625.625h-3.75a.626.626 0 01-.625-.625v-5c0-.345.28-.625.625-.625h3.75c.345 0 .625.28.625.625v5zM5.625.5h-3.75A1.877 1.877 0 000 2.375v5C0 8.409.841 9.25 1.875 9.25h3.75A1.877 1.877 0 007.5 7.375v-5A1.877 1.877 0 005.625.5zm.625 6.875c0 .345-.28.625-.625.625h-3.75a.626.626 0 01-.625-.625v-5c0-.345.28-.625.625-.625h3.75c.345 0 .625.28.625.625v5z" fill="#D2D3E0"/></g><defs><clipPath id="a"><path fill="#fff" transform="translate(0 .5)" d="M0 0H16V16H0z"/></clipPath></defs></svg>