<svg width="10" height="11" fill="none" xmlns="http://www.w3.org/2000/svg"><g clip-path="url(#a)" fill="#858699"><path d="M9.84 8.222l-3.822-6.62A1.164 1.164 0 005 1.014c-.425 0-.806.22-1.018.588L.159 8.222a1.164 1.164 0 000 1.176c.213.368.594.588 1.019.588h7.644c.425 0 .806-.22 1.019-.588a1.164 1.164 0 000-1.176zm-.507.883a.584.584 0 01-.51.295H1.177a.584.584 0 01-.511-.295.584.584 0 010-.59l3.822-6.62A.584.584 0 015 1.6c.213 0 .404.11.511.295l3.822 6.62a.584.584 0 010 .59z"/><path d="M5.293 3.938h-.586v2.929h.586v-2.93zM5 7.453a.391.391 0 100 .782.391.391 0 000-.782z"/></g><defs><clipPath id="a"><path fill="#fff" transform="translate(0 .5)" d="M0 0H10V10H0z"/></clipPath></defs></svg>