<svg width="20" height="20" fill="none" xmlns="http://www.w3.org/2000/svg"><path d="M1.39 6.07h3.66v1.172H1.39V6.07zM1.39 12.758h3.66v1.172H1.39v-1.172zM0 9.414h5.05v1.172H0V9.414z" fill="#fff"/><path fill-rule="evenodd" clip-rule="evenodd" d="M6.692 10a6.661 6.661 0 016.654-6.654A6.661 6.661 0 0120 10a6.661 6.661 0 01-6.654 6.654A6.661 6.661 0 016.692 10zm5.652 2.5l.585-1.567a7.331 7.331 0 001.856-.544c.413-.187.799-.41 1.105-.74.242-.261.379-.559.358-.913a.834.834 0 00-.526-.76c-.2-.09-.412-.131-.632-.132l-.588-.001h-.421l.062-.174.06-.169h-.438l-.08.19-.06.144h-.207l.122-.334h-.424l-.138.325H11.25l.224.653H14.29c.088 0 .175.005.261.015.226.024.33.13.368.34a.795.795 0 01-.191.68c-.37.44-.856.702-1.43.828a1.293 1.293 0 01-.115.018 3.889 3.889 0 00-.069.009l.613-1.656h-1.1c-.146.406-.302.831-.457 1.253l-.343.941c-.031.085-.028.094-.003.16l.009.025.21.576.302.833z" fill="#fff"/></svg>