<svg width="20" height="20" fill="none" xmlns="http://www.w3.org/2000/svg"><g clip-path="url(#a)"><path d="M2.747 14.245h2.839v3.528H2.747v-3.528zM14.414 14.245h2.839v3.528h-2.839v-3.528zM17.253 3.178v-.99H16.08v1.125a7.547 7.547 0 01-2.65 2.196 7.726 7.726 0 01-6.862 0 7.548 7.548 0 01-2.65-2.196V2.187H2.747v.99A7.605 7.605 0 010 5.508v1.29a8.695 8.695 0 002.747-1.83v4.468H0v3.638h20V9.435h-2.747V4.966c.792.781 1.72 1.4 2.747 1.83V5.507a7.605 7.605 0 01-2.747-2.33zM6.046 6.558a8.906 8.906 0 007.909 0 8.664 8.664 0 002.126-1.493v4.37H3.919v-4.37c.629.6 1.34 1.1 2.127 1.493z" fill="#fff"/></g><defs><clipPath id="a"><path fill="#fff" d="M0 0H20V20H0z"/></clipPath></defs></svg>