<svg width="10" height="11" fill="none" xmlns="http://www.w3.org/2000/svg"><g clip-path="url(#a)" fill="#858699"><path d="M8.516 1.672h-.293v-.293A.88.88 0 007.343.5H1.485a.88.88 0 00-.879.879v7.07a.88.88 0 00.88.88h.292v.292a.88.88 0 00.88.879h5.859a.88.88 0 00.879-.879v-7.07a.88.88 0 00-.88-.88zM2.035 2.758a.873.873 0 00-.258.621v5.363h-.293a.293.293 0 01-.293-.293V1.38c0-.162.132-.293.293-.293h5.86c.161 0 .293.131.293.293v.293H3.485a.873.873 0 00-.622.257l-.828.829zm1.5-.5V3.43H2.363v-.05c0-.079.03-.152.086-.208l.829-.828a.291.291 0 01.207-.086h.05zM8.81 9.62a.293.293 0 01-.293.293h-5.86a.293.293 0 01-.293-.293V4.016h1.465a.293.293 0 00.293-.293V2.258h4.395c.161 0 .293.131.293.293v7.07z"/><path d="M7.93 4.64H3.242a.293.293 0 000 .587H7.93a.293.293 0 000-.586zM7.93 5.813H3.242a.293.293 0 000 .585H7.93a.293.293 0 000-.585zM7.93 6.984H3.242a.293.293 0 000 .586H7.93a.293.293 0 000-.586zM7.93 8.156H3.242a.293.293 0 000 .586H7.93a.293.293 0 000-.586z"/></g><defs><clipPath id="a"><path fill="#fff" transform="translate(0 .5)" d="M0 0H10V10H0z"/></clipPath></defs></svg>