<svg width="21" height="20" fill="none" xmlns="http://www.w3.org/2000/svg"><g clip-path="url(#a)" fill="#fff"><path d="M1.085 18.872h2.382a.586.586 0 00.585-.587v-7.04c0-.972-.786-1.76-1.756-1.76h-1.21a.586.586 0 00-.586.587v8.213c0 .324.262.587.585.587zM18.941 14.6s-6.27 1.925-6.69 1.925c-.352 0-.715-.082-1.055-.246l-2.155-1.092a.61.61 0 00-.726.165.58.58 0 01-.82.094.571.571 0 01-.093-.822 1.766 1.766 0 012.155-.48l2.166 1.079c.6.3 1.285.053 1.57-.517.298-.597.046-1.314-.516-1.572l-4.86-2.44a2.283 2.283 0 00-1.686-.153l-1.007.323v7.106l3.021 1.512c1.406.716 3.127.728 4.439.13.117-.048 7.1-2.84 7.112-2.84.644-.282.855-1.092.597-1.526a1.177 1.177 0 00-1.452-.645z"/><path fill-rule="evenodd" clip-rule="evenodd" d="M18.105 5.358c0 2.912-2.364 5.28-5.27 5.28-2.906 0-5.27-2.368-5.27-5.28C7.565 2.447 9.93 0 12.835 0c2.906 0 5.27 2.447 5.27 5.358zM11.594 8.5l.585-1.567a7.33 7.33 0 001.855-.544c.414-.187.8-.41 1.106-.74.242-.261.379-.559.357-.913a.834.834 0 00-.525-.76c-.2-.09-.412-.131-.632-.132a104.776 104.776 0 00-1.01-.001l.063-.174.06-.169h-.439l-.079.19-.06.144h-.207l.122-.334h-.424l-.138.325H10.5l.224.653H13.54c.088 0 .175.005.261.015.226.024.33.13.368.34a.795.795 0 01-.191.68c-.37.44-.857.702-1.43.828-.036.008-.073.012-.115.018a3.857 3.857 0 00-.069.009l.613-1.656h-1.1c-.147.406-.302.831-.457 1.253l-.344.941c-.03.085-.027.094-.002.16l.009.025c.063.177.136.375.21.576l.302.833z"/></g><defs><clipPath id="a"><path fill="#fff" transform="translate(.5)" d="M0 0H20V20H0z"/></clipPath></defs></svg>