<svg width="10" height="11" fill="none" xmlns="http://www.w3.org/2000/svg"><g clip-path="url(#a)"><path d="M9.707 1.672H8.193A1.467 1.467 0 006.758.5c-.708 0-1.3.504-1.436 1.172H.293a.293.293 0 000 .586h5.03A1.467 1.467 0 006.757 3.43c.707 0 1.3-.504 1.435-1.172h1.514a.293.293 0 000-.586zm-2.95 1.172a.88.88 0 11.879-.879.88.88 0 01-.878.879zM9.707 5.207h-5.03a1.467 1.467 0 00-1.435-1.172c-.707 0-1.3.504-1.435 1.172H.293a.293.293 0 000 .586h1.514a1.467 1.467 0 001.435 1.172c.708 0 1.3-.504 1.436-1.172h5.029a.293.293 0 000-.586zM3.242 6.379a.88.88 0 11.879-.879.88.88 0 01-.879.879zM9.707 8.742H8.193A1.467 1.467 0 006.758 7.57c-.708 0-1.3.504-1.436 1.172H.293a.293.293 0 000 .586h5.03A1.467 1.467 0 006.757 10.5c.707 0 1.3-.504 1.435-1.172h1.514a.293.293 0 000-.586zm-2.95 1.172a.88.88 0 11.879-.879.88.88 0 01-.878.88z" fill="#858699"/></g><defs><clipPath id="a"><path fill="#fff" transform="translate(0 .5)" d="M0 0H10V10H0z"/></clipPath></defs></svg>