<svg width="30" height="30" fill="none" xmlns="http://www.w3.org/2000/svg"><g clip-path="url(#a)"><path d="M29.904.87a.88.88 0 00-.229-.532.88.88 0 00-1.065-.255l-.017.008a.728.728 0 00-.038.019L6.695 10.824a.878.878 0 00-.125 1.504l6.074 4.358-12.2 11.803a.879.879 0 001.032 1.403L24.523 17.31a.878.878 0 00.091-1.485l-5.628-4.038 10.65-10.22a.88.88 0 00.268-.696z" fill="url(#b)"/><path d="M29.904.87a.88.88 0 00-.229-.532.88.88 0 00-1.065-.255l-.017.008a.728.728 0 00-.038.019L15.04 6.734v15.752l9.482-5.177a.878.878 0 00.091-1.485l-5.628-4.038 10.65-10.22a.88.88 0 00.268-.696z" fill="url(#c)"/></g><defs><linearGradient id="b" x1=".176" y1="-6.6" x2="32.029" y2="-6.262" gradientUnits="userSpaceOnUse"><stop stop-color="#0FEF9E"/><stop offset="1" stop-color="#064560"/></linearGradient><linearGradient id="c" x1=".176" y1="-6.6" x2="32.029" y2="-6.262" gradientUnits="userSpaceOnUse"><stop stop-color="#0FEF9E"/><stop offset="1" stop-color="#064560"/></linearGradient><clipPath id="a"><path fill="#fff" d="M0 0H30V30H0z"/></clipPath></defs></svg>